<mxfile host="Electron" modified="2023-09-14T08:39:49.980Z" agent="Mozilla/5.0 (Windows NT 10.0; Win64; x64) AppleWebKit/537.36 (KHTML, like Gecko) draw.io/21.6.5 Chrome/114.0.5735.243 Electron/25.3.1 Safari/537.36" etag="pfTpZMkozi-atDfI_yn6" version="21.6.5" type="device" pages="2">
  <diagram id="zR0zMPfiPAYMRjZObuBY" name="Page-2">
    <mxGraphModel dx="1886" dy="614" grid="1" gridSize="10" guides="1" tooltips="1" connect="1" arrows="1" fold="1" page="1" pageScale="1" pageWidth="850" pageHeight="1100" math="0" shadow="0">
      <root>
        <mxCell id="0" />
        <mxCell id="1" parent="0" />
        <mxCell id="sApyfHs3uySSGcVFShYo-1" value="&lt;b&gt;&amp;lt;&amp;lt;interface&amp;gt;&amp;gt;&lt;br&gt;IBuilder&lt;/b&gt;" style="swimlane;fontStyle=0;childLayout=stackLayout;horizontal=1;startSize=30;horizontalStack=0;resizeParent=1;resizeParentMax=0;resizeLast=0;collapsible=1;marginBottom=0;whiteSpace=wrap;html=1;" parent="1" vertex="1">
          <mxGeometry x="620" y="130" width="230" height="270" as="geometry" />
        </mxCell>
        <mxCell id="sApyfHs3uySSGcVFShYo-2" value="+reset()" style="text;strokeColor=none;fillColor=none;align=left;verticalAlign=middle;spacingLeft=4;spacingRight=4;overflow=hidden;points=[[0,0.5],[1,0.5]];portConstraint=eastwest;rotatable=0;whiteSpace=wrap;html=1;" parent="sApyfHs3uySSGcVFShYo-1" vertex="1">
          <mxGeometry y="30" width="230" height="30" as="geometry" />
        </mxCell>
        <mxCell id="Vtq2fu76lCzMo7O6VF7V-5" value="+BuildType(swordType : string)" style="text;strokeColor=none;fillColor=none;align=left;verticalAlign=middle;spacingLeft=4;spacingRight=4;overflow=hidden;points=[[0,0.5],[1,0.5]];portConstraint=eastwest;rotatable=0;whiteSpace=wrap;html=1;" parent="sApyfHs3uySSGcVFShYo-1" vertex="1">
          <mxGeometry y="60" width="230" height="30" as="geometry" />
        </mxCell>
        <mxCell id="sApyfHs3uySSGcVFShYo-4" value="+BuildMaterial()" style="text;strokeColor=none;fillColor=none;align=left;verticalAlign=middle;spacingLeft=4;spacingRight=4;overflow=hidden;points=[[0,0.5],[1,0.5]];portConstraint=eastwest;rotatable=0;whiteSpace=wrap;html=1;" parent="sApyfHs3uySSGcVFShYo-1" vertex="1">
          <mxGeometry y="90" width="230" height="30" as="geometry" />
        </mxCell>
        <mxCell id="sApyfHs3uySSGcVFShYo-5" value="+BuildDecoration()" style="text;strokeColor=none;fillColor=none;align=left;verticalAlign=middle;spacingLeft=4;spacingRight=4;overflow=hidden;points=[[0,0.5],[1,0.5]];portConstraint=eastwest;rotatable=0;whiteSpace=wrap;html=1;" parent="sApyfHs3uySSGcVFShYo-1" vertex="1">
          <mxGeometry y="120" width="230" height="30" as="geometry" />
        </mxCell>
        <mxCell id="sApyfHs3uySSGcVFShYo-6" value="+BuildTemplate()" style="text;strokeColor=none;fillColor=none;align=left;verticalAlign=middle;spacingLeft=4;spacingRight=4;overflow=hidden;points=[[0,0.5],[1,0.5]];portConstraint=eastwest;rotatable=0;whiteSpace=wrap;html=1;" parent="sApyfHs3uySSGcVFShYo-1" vertex="1">
          <mxGeometry y="150" width="230" height="30" as="geometry" />
        </mxCell>
        <mxCell id="sApyfHs3uySSGcVFShYo-9" value="+BuildPerformCasting()" style="text;strokeColor=none;fillColor=none;align=left;verticalAlign=middle;spacingLeft=4;spacingRight=4;overflow=hidden;points=[[0,0.5],[1,0.5]];portConstraint=eastwest;rotatable=0;whiteSpace=wrap;html=1;" parent="sApyfHs3uySSGcVFShYo-1" vertex="1">
          <mxGeometry y="180" width="230" height="30" as="geometry" />
        </mxCell>
        <mxCell id="Vtq2fu76lCzMo7O6VF7V-1" value="+BuildEngraveAndCoat()" style="text;strokeColor=none;fillColor=none;align=left;verticalAlign=middle;spacingLeft=4;spacingRight=4;overflow=hidden;points=[[0,0.5],[1,0.5]];portConstraint=eastwest;rotatable=0;whiteSpace=wrap;html=1;" parent="sApyfHs3uySSGcVFShYo-1" vertex="1">
          <mxGeometry y="210" width="230" height="30" as="geometry" />
        </mxCell>
        <mxCell id="sApyfHs3uySSGcVFShYo-7" value="+GetSword():Sword" style="text;strokeColor=none;fillColor=none;align=left;verticalAlign=middle;spacingLeft=4;spacingRight=4;overflow=hidden;points=[[0,0.5],[1,0.5]];portConstraint=eastwest;rotatable=0;whiteSpace=wrap;html=1;" parent="sApyfHs3uySSGcVFShYo-1" vertex="1">
          <mxGeometry y="240" width="230" height="30" as="geometry" />
        </mxCell>
        <mxCell id="sApyfHs3uySSGcVFShYo-13" value="&lt;b&gt;SwordBuilder&lt;/b&gt;" style="swimlane;fontStyle=0;childLayout=stackLayout;horizontal=1;startSize=30;horizontalStack=0;resizeParent=1;resizeParentMax=0;resizeLast=0;collapsible=1;marginBottom=0;whiteSpace=wrap;html=1;" parent="1" vertex="1">
          <mxGeometry x="480" y="530" width="230" height="300" as="geometry" />
        </mxCell>
        <mxCell id="sApyfHs3uySSGcVFShYo-14" value="&lt;font style=&quot;font-size: 12px;&quot;&gt;&amp;nbsp; - _Sword:Sword&lt;/font&gt;" style="rounded=0;whiteSpace=wrap;html=1;align=left;" parent="sApyfHs3uySSGcVFShYo-13" vertex="1">
          <mxGeometry y="30" width="230" height="30" as="geometry" />
        </mxCell>
        <mxCell id="sApyfHs3uySSGcVFShYo-15" value="+reset()" style="text;strokeColor=none;fillColor=none;align=left;verticalAlign=middle;spacingLeft=4;spacingRight=4;overflow=hidden;points=[[0,0.5],[1,0.5]];portConstraint=eastwest;rotatable=0;whiteSpace=wrap;html=1;" parent="sApyfHs3uySSGcVFShYo-13" vertex="1">
          <mxGeometry y="60" width="230" height="30" as="geometry" />
        </mxCell>
        <mxCell id="sApyfHs3uySSGcVFShYo-77" value="+BuildType(swordType : string)" style="text;strokeColor=none;fillColor=none;align=left;verticalAlign=middle;spacingLeft=4;spacingRight=4;overflow=hidden;points=[[0,0.5],[1,0.5]];portConstraint=eastwest;rotatable=0;whiteSpace=wrap;html=1;" parent="sApyfHs3uySSGcVFShYo-13" vertex="1">
          <mxGeometry y="90" width="230" height="30" as="geometry" />
        </mxCell>
        <mxCell id="sApyfHs3uySSGcVFShYo-78" value="+BuildMaterial()" style="text;strokeColor=none;fillColor=none;align=left;verticalAlign=middle;spacingLeft=4;spacingRight=4;overflow=hidden;points=[[0,0.5],[1,0.5]];portConstraint=eastwest;rotatable=0;whiteSpace=wrap;html=1;" parent="sApyfHs3uySSGcVFShYo-13" vertex="1">
          <mxGeometry y="120" width="230" height="30" as="geometry" />
        </mxCell>
        <mxCell id="sApyfHs3uySSGcVFShYo-81" value="+BuildPerformCasting()" style="text;strokeColor=none;fillColor=none;align=left;verticalAlign=middle;spacingLeft=4;spacingRight=4;overflow=hidden;points=[[0,0.5],[1,0.5]];portConstraint=eastwest;rotatable=0;whiteSpace=wrap;html=1;" parent="sApyfHs3uySSGcVFShYo-13" vertex="1">
          <mxGeometry y="150" width="230" height="30" as="geometry" />
        </mxCell>
        <mxCell id="sApyfHs3uySSGcVFShYo-79" value="+BuildDecoration()" style="text;strokeColor=none;fillColor=none;align=left;verticalAlign=middle;spacingLeft=4;spacingRight=4;overflow=hidden;points=[[0,0.5],[1,0.5]];portConstraint=eastwest;rotatable=0;whiteSpace=wrap;html=1;" parent="sApyfHs3uySSGcVFShYo-13" vertex="1">
          <mxGeometry y="180" width="230" height="30" as="geometry" />
        </mxCell>
        <mxCell id="Vtq2fu76lCzMo7O6VF7V-2" value="+BuildEngraveAndCoat()" style="text;strokeColor=none;fillColor=none;align=left;verticalAlign=middle;spacingLeft=4;spacingRight=4;overflow=hidden;points=[[0,0.5],[1,0.5]];portConstraint=eastwest;rotatable=0;whiteSpace=wrap;html=1;" parent="sApyfHs3uySSGcVFShYo-13" vertex="1">
          <mxGeometry y="210" width="230" height="30" as="geometry" />
        </mxCell>
        <mxCell id="sApyfHs3uySSGcVFShYo-80" value="+BuildTemplate()" style="text;strokeColor=none;fillColor=none;align=left;verticalAlign=middle;spacingLeft=4;spacingRight=4;overflow=hidden;points=[[0,0.5],[1,0.5]];portConstraint=eastwest;rotatable=0;whiteSpace=wrap;html=1;" parent="sApyfHs3uySSGcVFShYo-13" vertex="1">
          <mxGeometry y="240" width="230" height="30" as="geometry" />
        </mxCell>
        <mxCell id="sApyfHs3uySSGcVFShYo-82" value="+GetSword():Sword" style="text;strokeColor=none;fillColor=none;align=left;verticalAlign=middle;spacingLeft=4;spacingRight=4;overflow=hidden;points=[[0,0.5],[1,0.5]];portConstraint=eastwest;rotatable=0;whiteSpace=wrap;html=1;" parent="sApyfHs3uySSGcVFShYo-13" vertex="1">
          <mxGeometry y="270" width="230" height="30" as="geometry" />
        </mxCell>
        <mxCell id="sApyfHs3uySSGcVFShYo-26" value="&lt;b&gt;Director&lt;/b&gt;" style="swimlane;fontStyle=0;childLayout=stackLayout;horizontal=1;startSize=30;horizontalStack=0;resizeParent=1;resizeParentMax=0;resizeLast=0;collapsible=1;marginBottom=0;whiteSpace=wrap;html=1;" parent="1" vertex="1">
          <mxGeometry x="290" y="140" width="170" height="150" as="geometry" />
        </mxCell>
        <mxCell id="sApyfHs3uySSGcVFShYo-27" value="&lt;font style=&quot;font-size: 12px;&quot;&gt;&lt;b&gt;...&lt;/b&gt;&lt;/font&gt;" style="rounded=0;whiteSpace=wrap;html=1;align=left;" parent="sApyfHs3uySSGcVFShYo-26" vertex="1">
          <mxGeometry y="30" width="170" height="30" as="geometry" />
        </mxCell>
        <mxCell id="sApyfHs3uySSGcVFShYo-28" value="+makeKatana(builder)" style="text;strokeColor=none;fillColor=none;align=left;verticalAlign=middle;spacingLeft=4;spacingRight=4;overflow=hidden;points=[[0,0.5],[1,0.5]];portConstraint=eastwest;rotatable=0;whiteSpace=wrap;html=1;" parent="sApyfHs3uySSGcVFShYo-26" vertex="1">
          <mxGeometry y="60" width="170" height="30" as="geometry" />
        </mxCell>
        <mxCell id="eeE5SsmzAaJwS9Jl63CG-1" value="+makeBroadSword(builder)" style="text;strokeColor=none;fillColor=none;align=left;verticalAlign=middle;spacingLeft=4;spacingRight=4;overflow=hidden;points=[[0,0.5],[1,0.5]];portConstraint=eastwest;rotatable=0;whiteSpace=wrap;html=1;" parent="sApyfHs3uySSGcVFShYo-26" vertex="1">
          <mxGeometry y="90" width="170" height="30" as="geometry" />
        </mxCell>
        <mxCell id="eeE5SsmzAaJwS9Jl63CG-3" value="+make&lt;span style=&quot;background-color: initial;&quot;&gt;Krabi(builder)&lt;/span&gt;" style="text;strokeColor=none;fillColor=none;align=left;verticalAlign=middle;spacingLeft=4;spacingRight=4;overflow=hidden;points=[[0,0.5],[1,0.5]];portConstraint=eastwest;rotatable=0;whiteSpace=wrap;html=1;" parent="sApyfHs3uySSGcVFShYo-26" vertex="1">
          <mxGeometry y="120" width="170" height="30" as="geometry" />
        </mxCell>
        <mxCell id="sApyfHs3uySSGcVFShYo-34" value="Sword" style="rounded=0;whiteSpace=wrap;html=1;" parent="1" vertex="1">
          <mxGeometry x="535" y="890" width="120" height="40" as="geometry" />
        </mxCell>
        <mxCell id="sApyfHs3uySSGcVFShYo-36" value="" style="endArrow=open;dashed=1;html=1;rounded=0;exitX=1.018;exitY=0.2;exitDx=0;exitDy=0;endFill=0;strokeWidth=1;endSize=13;entryX=0;entryY=0.5;entryDx=0;entryDy=0;exitPerimeter=0;" parent="1" target="sApyfHs3uySSGcVFShYo-4" edge="1">
          <mxGeometry width="50" height="50" relative="1" as="geometry">
            <mxPoint x="463.05999999999995" y="236" as="sourcePoint" />
            <mxPoint x="250" y="230" as="targetPoint" />
          </mxGeometry>
        </mxCell>
        <mxCell id="sApyfHs3uySSGcVFShYo-40" style="edgeStyle=orthogonalEdgeStyle;rounded=0;orthogonalLoop=1;jettySize=auto;html=1;exitX=0.5;exitY=1;exitDx=0;exitDy=0;exitPerimeter=0;" parent="1" edge="1">
          <mxGeometry relative="1" as="geometry">
            <mxPoint x="185" y="300" as="sourcePoint" />
            <mxPoint x="185" y="300" as="targetPoint" />
          </mxGeometry>
        </mxCell>
        <mxCell id="sApyfHs3uySSGcVFShYo-42" value="return this._Sword" style="shape=note;whiteSpace=wrap;html=1;backgroundOutline=1;darkOpacity=0.05;align=center;" parent="1" vertex="1">
          <mxGeometry x="180" y="790" width="160" height="50" as="geometry" />
        </mxCell>
        <mxCell id="sApyfHs3uySSGcVFShYo-43" value="" style="endArrow=none;dashed=1;html=1;dashPattern=1 3;strokeWidth=2;rounded=0;exitX=0;exitY=0;exitDx=160;exitDy=30;exitPerimeter=0;" parent="1" source="sApyfHs3uySSGcVFShYo-42" target="sApyfHs3uySSGcVFShYo-82" edge="1">
          <mxGeometry width="50" height="50" relative="1" as="geometry">
            <mxPoint x="116.47" y="880" as="sourcePoint" />
            <mxPoint x="535.4545454545455" y="640" as="targetPoint" />
          </mxGeometry>
        </mxCell>
        <mxCell id="sApyfHs3uySSGcVFShYo-44" value="_Sword = new Sword()" style="shape=note;whiteSpace=wrap;html=1;backgroundOutline=1;darkOpacity=0.05;align=left;" parent="1" vertex="1">
          <mxGeometry x="190" y="580" width="160" height="50" as="geometry" />
        </mxCell>
        <mxCell id="sApyfHs3uySSGcVFShYo-45" value="" style="endArrow=none;dashed=1;html=1;dashPattern=1 3;strokeWidth=2;rounded=0;entryX=0;entryY=0.5;entryDx=0;entryDy=0;" parent="1" source="sApyfHs3uySSGcVFShYo-44" target="sApyfHs3uySSGcVFShYo-15" edge="1">
          <mxGeometry width="50" height="50" relative="1" as="geometry">
            <mxPoint x="136" y="850" as="sourcePoint" />
            <mxPoint x="259.9994117647059" y="920" as="targetPoint" />
          </mxGeometry>
        </mxCell>
        <mxCell id="sApyfHs3uySSGcVFShYo-46" value="&lt;b&gt;ToySwordBuilder&lt;/b&gt;" style="swimlane;fontStyle=0;childLayout=stackLayout;horizontal=1;startSize=30;horizontalStack=0;resizeParent=1;resizeParentMax=0;resizeLast=0;collapsible=1;marginBottom=0;whiteSpace=wrap;html=1;" parent="1" vertex="1">
          <mxGeometry x="850" y="530" width="230" height="300" as="geometry" />
        </mxCell>
        <mxCell id="sApyfHs3uySSGcVFShYo-47" value="&lt;font style=&quot;font-size: 12px;&quot;&gt;&amp;nbsp; - _Toy:&lt;/font&gt;Sword" style="rounded=0;whiteSpace=wrap;html=1;align=left;" parent="sApyfHs3uySSGcVFShYo-46" vertex="1">
          <mxGeometry y="30" width="230" height="30" as="geometry" />
        </mxCell>
        <mxCell id="sApyfHs3uySSGcVFShYo-97" value="+reset()" style="text;strokeColor=none;fillColor=none;align=left;verticalAlign=middle;spacingLeft=4;spacingRight=4;overflow=hidden;points=[[0,0.5],[1,0.5]];portConstraint=eastwest;rotatable=0;whiteSpace=wrap;html=1;" parent="sApyfHs3uySSGcVFShYo-46" vertex="1">
          <mxGeometry y="60" width="230" height="30" as="geometry" />
        </mxCell>
        <mxCell id="Vtq2fu76lCzMo7O6VF7V-4" value="+BuildType(swordType : string)" style="text;strokeColor=none;fillColor=none;align=left;verticalAlign=middle;spacingLeft=4;spacingRight=4;overflow=hidden;points=[[0,0.5],[1,0.5]];portConstraint=eastwest;rotatable=0;whiteSpace=wrap;html=1;" parent="sApyfHs3uySSGcVFShYo-46" vertex="1">
          <mxGeometry y="90" width="230" height="30" as="geometry" />
        </mxCell>
        <mxCell id="sApyfHs3uySSGcVFShYo-92" value="+BuildMaterial()" style="text;strokeColor=none;fillColor=none;align=left;verticalAlign=middle;spacingLeft=4;spacingRight=4;overflow=hidden;points=[[0,0.5],[1,0.5]];portConstraint=eastwest;rotatable=0;whiteSpace=wrap;html=1;" parent="sApyfHs3uySSGcVFShYo-46" vertex="1">
          <mxGeometry y="120" width="230" height="30" as="geometry" />
        </mxCell>
        <mxCell id="sApyfHs3uySSGcVFShYo-93" value="+BuildPerformCasting()" style="text;strokeColor=none;fillColor=none;align=left;verticalAlign=middle;spacingLeft=4;spacingRight=4;overflow=hidden;points=[[0,0.5],[1,0.5]];portConstraint=eastwest;rotatable=0;whiteSpace=wrap;html=1;" parent="sApyfHs3uySSGcVFShYo-46" vertex="1">
          <mxGeometry y="150" width="230" height="30" as="geometry" />
        </mxCell>
        <mxCell id="sApyfHs3uySSGcVFShYo-95" value="+BuildDecoration()" style="text;strokeColor=none;fillColor=none;align=left;verticalAlign=middle;spacingLeft=4;spacingRight=4;overflow=hidden;points=[[0,0.5],[1,0.5]];portConstraint=eastwest;rotatable=0;whiteSpace=wrap;html=1;" parent="sApyfHs3uySSGcVFShYo-46" vertex="1">
          <mxGeometry y="180" width="230" height="30" as="geometry" />
        </mxCell>
        <mxCell id="Vtq2fu76lCzMo7O6VF7V-3" value="+BuildEngraveAndCoat()" style="text;strokeColor=none;fillColor=none;align=left;verticalAlign=middle;spacingLeft=4;spacingRight=4;overflow=hidden;points=[[0,0.5],[1,0.5]];portConstraint=eastwest;rotatable=0;whiteSpace=wrap;html=1;" parent="sApyfHs3uySSGcVFShYo-46" vertex="1">
          <mxGeometry y="210" width="230" height="30" as="geometry" />
        </mxCell>
        <mxCell id="sApyfHs3uySSGcVFShYo-94" value="+BuildTemplate()" style="text;strokeColor=none;fillColor=none;align=left;verticalAlign=middle;spacingLeft=4;spacingRight=4;overflow=hidden;points=[[0,0.5],[1,0.5]];portConstraint=eastwest;rotatable=0;whiteSpace=wrap;html=1;" parent="sApyfHs3uySSGcVFShYo-46" vertex="1">
          <mxGeometry y="240" width="230" height="30" as="geometry" />
        </mxCell>
        <mxCell id="sApyfHs3uySSGcVFShYo-96" value="+GetSword():Sword" style="text;strokeColor=none;fillColor=none;align=left;verticalAlign=middle;spacingLeft=4;spacingRight=4;overflow=hidden;points=[[0,0.5],[1,0.5]];portConstraint=eastwest;rotatable=0;whiteSpace=wrap;html=1;" parent="sApyfHs3uySSGcVFShYo-46" vertex="1">
          <mxGeometry y="270" width="230" height="30" as="geometry" />
        </mxCell>
        <mxCell id="sApyfHs3uySSGcVFShYo-74" value="" style="endArrow=none;dashed=1;html=1;dashPattern=1 3;strokeWidth=1;rounded=0;endFill=0;startSize=1;endSize=12;edgeStyle=orthogonalEdgeStyle;entryX=0.537;entryY=-0.005;entryDx=0;entryDy=0;entryPerimeter=0;" parent="1" target="sApyfHs3uySSGcVFShYo-46" edge="1">
          <mxGeometry width="50" height="50" relative="1" as="geometry">
            <mxPoint x="520" y="520" as="sourcePoint" />
            <mxPoint x="810" y="480" as="targetPoint" />
            <Array as="points">
              <mxPoint x="520" y="470" />
              <mxPoint x="974" y="470" />
            </Array>
          </mxGeometry>
        </mxCell>
        <mxCell id="eeE5SsmzAaJwS9Jl63CG-6" value="" style="endArrow=block;dashed=1;html=1;dashPattern=1 3;strokeWidth=2;rounded=0;entryX=0.442;entryY=1.033;entryDx=0;entryDy=0;entryPerimeter=0;endFill=0;" parent="1" target="sApyfHs3uySSGcVFShYo-7" edge="1">
          <mxGeometry width="50" height="50" relative="1" as="geometry">
            <mxPoint x="722" y="470" as="sourcePoint" />
            <mxPoint x="700" y="420" as="targetPoint" />
          </mxGeometry>
        </mxCell>
        <mxCell id="Vtq2fu76lCzMo7O6VF7V-6" value="&lt;div&gt;&amp;nbsp;builder.BuildTemplate();&lt;/div&gt;&lt;div&gt;&amp;nbsp;builder.BuildMaterial();&lt;/div&gt;&lt;div&gt;&amp;nbsp;builder.BuildDecoration();&lt;/div&gt;&lt;div&gt;&amp;nbsp;builder.BuildEngraveAndCoat();&lt;/div&gt;&lt;div&gt;&amp;nbsp;builder.BuildPerformCasting();&lt;/div&gt;&lt;div&gt;builder.BuildType(&quot;Japan sword weapon&quot;);&lt;/div&gt;" style="shape=note;whiteSpace=wrap;html=1;backgroundOutline=1;darkOpacity=0.05;align=left;fillColor=#f5f5f5;fontColor=#333333;strokeColor=#666666;" parent="1" vertex="1">
          <mxGeometry x="-10" y="130" width="260" height="100" as="geometry" />
        </mxCell>
        <mxCell id="Vtq2fu76lCzMo7O6VF7V-7" value="&lt;div&gt;&amp;nbsp;builder.BuildTemplate();&lt;/div&gt;&lt;div&gt;&amp;nbsp;builder.BuildMaterial();&lt;/div&gt;&lt;div&gt;builder.BuildPerformCasting();&lt;/div&gt;&lt;div&gt;&amp;nbsp;builder.BuildType(&quot;chinese sword weapon&quot;);&lt;/div&gt;" style="shape=note;whiteSpace=wrap;html=1;backgroundOutline=1;darkOpacity=0.05;align=left;fillColor=#f5f5f5;fontColor=#333333;strokeColor=#666666;" parent="1" vertex="1">
          <mxGeometry x="-10" y="270" width="260" height="70" as="geometry" />
        </mxCell>
        <mxCell id="Vtq2fu76lCzMo7O6VF7V-8" value="" style="endArrow=none;dashed=1;html=1;dashPattern=1 3;strokeWidth=2;rounded=0;exitX=1;exitY=0.543;exitDx=0;exitDy=0;exitPerimeter=0;" parent="1" source="Vtq2fu76lCzMo7O6VF7V-7" target="eeE5SsmzAaJwS9Jl63CG-3" edge="1">
          <mxGeometry width="50" height="50" relative="1" as="geometry">
            <mxPoint x="290" y="450" as="sourcePoint" />
            <mxPoint x="340" y="400" as="targetPoint" />
          </mxGeometry>
        </mxCell>
        <mxCell id="Vtq2fu76lCzMo7O6VF7V-9" value="" style="endArrow=none;dashed=1;html=1;dashPattern=1 3;strokeWidth=2;rounded=0;" parent="1" source="Vtq2fu76lCzMo7O6VF7V-6" edge="1">
          <mxGeometry width="50" height="50" relative="1" as="geometry">
            <mxPoint x="226" y="224" as="sourcePoint" />
            <mxPoint x="294" y="206" as="targetPoint" />
          </mxGeometry>
        </mxCell>
        <mxCell id="52X7ZnSK7Gwp2Gs0s-cs-1" value="Toy" style="rounded=0;whiteSpace=wrap;html=1;" vertex="1" parent="1">
          <mxGeometry x="905" y="890" width="120" height="40" as="geometry" />
        </mxCell>
        <mxCell id="52X7ZnSK7Gwp2Gs0s-cs-2" value="" style="endArrow=classic;html=1;rounded=0;" edge="1" parent="1" source="sApyfHs3uySSGcVFShYo-82" target="sApyfHs3uySSGcVFShYo-34">
          <mxGeometry width="50" height="50" relative="1" as="geometry">
            <mxPoint x="550" y="910" as="sourcePoint" />
            <mxPoint x="600" y="860" as="targetPoint" />
          </mxGeometry>
        </mxCell>
        <mxCell id="52X7ZnSK7Gwp2Gs0s-cs-4" value="" style="endArrow=classic;html=1;rounded=0;" edge="1" parent="1">
          <mxGeometry width="50" height="50" relative="1" as="geometry">
            <mxPoint x="960" y="830" as="sourcePoint" />
            <mxPoint x="960" y="890" as="targetPoint" />
          </mxGeometry>
        </mxCell>
      </root>
    </mxGraphModel>
  </diagram>
  <diagram name="Page-1" id="udkBrg2XiQwDzJatd2ej">
    <mxGraphModel dx="1036" dy="614" grid="1" gridSize="10" guides="1" tooltips="1" connect="1" arrows="1" fold="1" page="1" pageScale="1" pageWidth="850" pageHeight="1100" math="0" shadow="0">
      <root>
        <mxCell id="0" />
        <mxCell id="1" parent="0" />
        <mxCell id="0J2taYZqLhxap7dWOBqm-1" value="&lt;b&gt;&amp;lt;&amp;lt;interface&amp;gt;&amp;gt;&lt;br&gt;IBuilder&lt;/b&gt;" style="swimlane;fontStyle=0;childLayout=stackLayout;horizontal=1;startSize=30;horizontalStack=0;resizeParent=1;resizeParentMax=0;resizeLast=0;collapsible=1;marginBottom=0;whiteSpace=wrap;html=1;" parent="1" vertex="1">
          <mxGeometry x="740" y="160" width="230" height="360" as="geometry" />
        </mxCell>
        <mxCell id="0J2taYZqLhxap7dWOBqm-2" value="+reset()" style="text;strokeColor=none;fillColor=none;align=left;verticalAlign=middle;spacingLeft=4;spacingRight=4;overflow=hidden;points=[[0,0.5],[1,0.5]];portConstraint=eastwest;rotatable=0;whiteSpace=wrap;html=1;" parent="0J2taYZqLhxap7dWOBqm-1" vertex="1">
          <mxGeometry y="30" width="230" height="30" as="geometry" />
        </mxCell>
        <mxCell id="0J2taYZqLhxap7dWOBqm-3" value="+buildBody()" style="text;strokeColor=none;fillColor=none;align=left;verticalAlign=middle;spacingLeft=4;spacingRight=4;overflow=hidden;points=[[0,0.5],[1,0.5]];portConstraint=eastwest;rotatable=0;whiteSpace=wrap;html=1;" parent="0J2taYZqLhxap7dWOBqm-1" vertex="1">
          <mxGeometry y="60" width="230" height="30" as="geometry" />
        </mxCell>
        <mxCell id="0J2taYZqLhxap7dWOBqm-4" value="+builBilge()" style="text;strokeColor=none;fillColor=none;align=left;verticalAlign=middle;spacingLeft=4;spacingRight=4;overflow=hidden;points=[[0,0.5],[1,0.5]];portConstraint=eastwest;rotatable=0;whiteSpace=wrap;html=1;" parent="0J2taYZqLhxap7dWOBqm-1" vertex="1">
          <mxGeometry y="90" width="230" height="30" as="geometry" />
        </mxCell>
        <mxCell id="0J2taYZqLhxap7dWOBqm-5" value="+builGunnel()" style="text;strokeColor=none;fillColor=none;align=left;verticalAlign=middle;spacingLeft=4;spacingRight=4;overflow=hidden;points=[[0,0.5],[1,0.5]];portConstraint=eastwest;rotatable=0;whiteSpace=wrap;html=1;" parent="0J2taYZqLhxap7dWOBqm-1" vertex="1">
          <mxGeometry y="120" width="230" height="30" as="geometry" />
        </mxCell>
        <mxCell id="0J2taYZqLhxap7dWOBqm-9" value="+builStern()" style="text;strokeColor=none;fillColor=none;align=left;verticalAlign=middle;spacingLeft=4;spacingRight=4;overflow=hidden;points=[[0,0.5],[1,0.5]];portConstraint=eastwest;rotatable=0;whiteSpace=wrap;html=1;" parent="0J2taYZqLhxap7dWOBqm-1" vertex="1">
          <mxGeometry y="150" width="230" height="30" as="geometry" />
        </mxCell>
        <mxCell id="P2RlCiofksnCE4rTVvpo-5" value="+getBoat():Boat" style="text;strokeColor=none;fillColor=none;align=left;verticalAlign=middle;spacingLeft=4;spacingRight=4;overflow=hidden;points=[[0,0.5],[1,0.5]];portConstraint=eastwest;rotatable=0;whiteSpace=wrap;html=1;" parent="0J2taYZqLhxap7dWOBqm-1" vertex="1">
          <mxGeometry y="180" width="230" height="30" as="geometry" />
        </mxCell>
        <mxCell id="0J2taYZqLhxap7dWOBqm-71" value="+buildRudder()" style="text;strokeColor=none;fillColor=none;align=left;verticalAlign=middle;spacingLeft=4;spacingRight=4;overflow=hidden;points=[[0,0.5],[1,0.5]];portConstraint=eastwest;rotatable=0;whiteSpace=wrap;html=1;" parent="0J2taYZqLhxap7dWOBqm-1" vertex="1">
          <mxGeometry y="210" width="230" height="30" as="geometry" />
        </mxCell>
        <mxCell id="0J2taYZqLhxap7dWOBqm-62" value="+buildFishFishingEquipment(bool fishing)" style="text;strokeColor=none;fillColor=none;align=left;verticalAlign=middle;spacingLeft=4;spacingRight=4;overflow=hidden;points=[[0,0.5],[1,0.5]];portConstraint=eastwest;rotatable=0;whiteSpace=wrap;html=1;" parent="0J2taYZqLhxap7dWOBqm-1" vertex="1">
          <mxGeometry y="240" width="230" height="30" as="geometry" />
        </mxCell>
        <mxCell id="0J2taYZqLhxap7dWOBqm-8" value="+buildRoomService(bool value)" style="text;strokeColor=none;fillColor=none;align=left;verticalAlign=middle;spacingLeft=4;spacingRight=4;overflow=hidden;points=[[0,0.5],[1,0.5]];portConstraint=eastwest;rotatable=0;whiteSpace=wrap;html=1;" parent="0J2taYZqLhxap7dWOBqm-1" vertex="1">
          <mxGeometry y="270" width="230" height="30" as="geometry" />
        </mxCell>
        <mxCell id="QMrXWG7ULhR697TOB94p-8" value="+buildDrainPump(bool value)" style="text;strokeColor=none;fillColor=none;align=left;verticalAlign=middle;spacingLeft=4;spacingRight=4;overflow=hidden;points=[[0,0.5],[1,0.5]];portConstraint=eastwest;rotatable=0;whiteSpace=wrap;html=1;" parent="0J2taYZqLhxap7dWOBqm-1" vertex="1">
          <mxGeometry y="300" width="230" height="30" as="geometry" />
        </mxCell>
        <mxCell id="dQuskKlKTG53WlhPTK8X-17" value="+buildWeapon(bool value)" style="text;strokeColor=none;fillColor=none;align=left;verticalAlign=middle;spacingLeft=4;spacingRight=4;overflow=hidden;points=[[0,0.5],[1,0.5]];portConstraint=eastwest;rotatable=0;whiteSpace=wrap;html=1;" parent="0J2taYZqLhxap7dWOBqm-1" vertex="1">
          <mxGeometry y="330" width="230" height="30" as="geometry" />
        </mxCell>
        <mxCell id="0J2taYZqLhxap7dWOBqm-10" value="&lt;b&gt;YachtBuilder&lt;/b&gt;" style="swimlane;fontStyle=0;childLayout=stackLayout;horizontal=1;startSize=30;horizontalStack=0;resizeParent=1;resizeParentMax=0;resizeLast=0;collapsible=1;marginBottom=0;whiteSpace=wrap;html=1;" parent="1" vertex="1">
          <mxGeometry x="470" y="600" width="230" height="390" as="geometry" />
        </mxCell>
        <mxCell id="0J2taYZqLhxap7dWOBqm-37" value="&lt;font style=&quot;font-size: 12px;&quot;&gt;&amp;nbsp; - _yacht:Boat&lt;/font&gt;" style="rounded=0;whiteSpace=wrap;html=1;align=left;" parent="0J2taYZqLhxap7dWOBqm-10" vertex="1">
          <mxGeometry y="30" width="230" height="30" as="geometry" />
        </mxCell>
        <mxCell id="0J2taYZqLhxap7dWOBqm-31" value="+reset()" style="text;strokeColor=none;fillColor=none;align=left;verticalAlign=middle;spacingLeft=4;spacingRight=4;overflow=hidden;points=[[0,0.5],[1,0.5]];portConstraint=eastwest;rotatable=0;whiteSpace=wrap;html=1;" parent="0J2taYZqLhxap7dWOBqm-10" vertex="1">
          <mxGeometry y="60" width="230" height="30" as="geometry" />
        </mxCell>
        <mxCell id="0J2taYZqLhxap7dWOBqm-32" value="+buildBody()" style="text;strokeColor=none;fillColor=none;align=left;verticalAlign=middle;spacingLeft=4;spacingRight=4;overflow=hidden;points=[[0,0.5],[1,0.5]];portConstraint=eastwest;rotatable=0;whiteSpace=wrap;html=1;" parent="0J2taYZqLhxap7dWOBqm-10" vertex="1">
          <mxGeometry y="90" width="230" height="30" as="geometry" />
        </mxCell>
        <mxCell id="0J2taYZqLhxap7dWOBqm-36" value="+builRudder()" style="text;strokeColor=none;fillColor=none;align=left;verticalAlign=middle;spacingLeft=4;spacingRight=4;overflow=hidden;points=[[0,0.5],[1,0.5]];portConstraint=eastwest;rotatable=0;whiteSpace=wrap;html=1;" parent="0J2taYZqLhxap7dWOBqm-10" vertex="1">
          <mxGeometry y="120" width="230" height="30" as="geometry" />
        </mxCell>
        <mxCell id="0J2taYZqLhxap7dWOBqm-35" value="+builStern()" style="text;strokeColor=none;fillColor=none;align=left;verticalAlign=middle;spacingLeft=4;spacingRight=4;overflow=hidden;points=[[0,0.5],[1,0.5]];portConstraint=eastwest;rotatable=0;whiteSpace=wrap;html=1;" parent="0J2taYZqLhxap7dWOBqm-10" vertex="1">
          <mxGeometry y="150" width="230" height="30" as="geometry" />
        </mxCell>
        <mxCell id="0J2taYZqLhxap7dWOBqm-34" value="+builGunnel()" style="text;strokeColor=none;fillColor=none;align=left;verticalAlign=middle;spacingLeft=4;spacingRight=4;overflow=hidden;points=[[0,0.5],[1,0.5]];portConstraint=eastwest;rotatable=0;whiteSpace=wrap;html=1;" parent="0J2taYZqLhxap7dWOBqm-10" vertex="1">
          <mxGeometry y="180" width="230" height="30" as="geometry" />
        </mxCell>
        <mxCell id="0J2taYZqLhxap7dWOBqm-33" value="+builBilge()" style="text;strokeColor=none;fillColor=none;align=left;verticalAlign=middle;spacingLeft=4;spacingRight=4;overflow=hidden;points=[[0,0.5],[1,0.5]];portConstraint=eastwest;rotatable=0;whiteSpace=wrap;html=1;" parent="0J2taYZqLhxap7dWOBqm-10" vertex="1">
          <mxGeometry y="210" width="230" height="30" as="geometry" />
        </mxCell>
        <mxCell id="0J2taYZqLhxap7dWOBqm-63" value="+buildRudder()" style="text;strokeColor=none;fillColor=none;align=left;verticalAlign=middle;spacingLeft=4;spacingRight=4;overflow=hidden;points=[[0,0.5],[1,0.5]];portConstraint=eastwest;rotatable=0;whiteSpace=wrap;html=1;" parent="0J2taYZqLhxap7dWOBqm-10" vertex="1">
          <mxGeometry y="240" width="230" height="30" as="geometry" />
        </mxCell>
        <mxCell id="0J2taYZqLhxap7dWOBqm-64" value="+buildFishFishingEquipment(bool fishing)" style="text;strokeColor=none;fillColor=none;align=left;verticalAlign=middle;spacingLeft=4;spacingRight=4;overflow=hidden;points=[[0,0.5],[1,0.5]];portConstraint=eastwest;rotatable=0;whiteSpace=wrap;html=1;" parent="0J2taYZqLhxap7dWOBqm-10" vertex="1">
          <mxGeometry y="270" width="230" height="30" as="geometry" />
        </mxCell>
        <mxCell id="0J2taYZqLhxap7dWOBqm-65" value="+buildRoomService(bool value)" style="text;strokeColor=none;fillColor=none;align=left;verticalAlign=middle;spacingLeft=4;spacingRight=4;overflow=hidden;points=[[0,0.5],[1,0.5]];portConstraint=eastwest;rotatable=0;whiteSpace=wrap;html=1;" parent="0J2taYZqLhxap7dWOBqm-10" vertex="1">
          <mxGeometry y="300" width="230" height="30" as="geometry" />
        </mxCell>
        <mxCell id="P2RlCiofksnCE4rTVvpo-1" value="+buildWeapon(bool value)" style="text;strokeColor=none;fillColor=none;align=left;verticalAlign=middle;spacingLeft=4;spacingRight=4;overflow=hidden;points=[[0,0.5],[1,0.5]];portConstraint=eastwest;rotatable=0;whiteSpace=wrap;html=1;" parent="0J2taYZqLhxap7dWOBqm-10" vertex="1">
          <mxGeometry y="330" width="230" height="30" as="geometry" />
        </mxCell>
        <mxCell id="0J2taYZqLhxap7dWOBqm-45" value="+getBoat():Boat" style="text;strokeColor=none;fillColor=none;align=left;verticalAlign=middle;spacingLeft=4;spacingRight=4;overflow=hidden;points=[[0,0.5],[1,0.5]];portConstraint=eastwest;rotatable=0;whiteSpace=wrap;html=1;" parent="0J2taYZqLhxap7dWOBqm-10" vertex="1">
          <mxGeometry y="360" width="230" height="30" as="geometry" />
        </mxCell>
        <mxCell id="0J2taYZqLhxap7dWOBqm-18" value="&lt;b&gt;Director&lt;/b&gt;" style="swimlane;fontStyle=0;childLayout=stackLayout;horizontal=1;startSize=30;horizontalStack=0;resizeParent=1;resizeParentMax=0;resizeLast=0;collapsible=1;marginBottom=0;whiteSpace=wrap;html=1;" parent="1" vertex="1">
          <mxGeometry x="410" y="170" width="170" height="210" as="geometry" />
        </mxCell>
        <mxCell id="0J2taYZqLhxap7dWOBqm-22" value="&lt;font style=&quot;font-size: 12px;&quot;&gt;&lt;b&gt;...&lt;/b&gt;&lt;/font&gt;" style="rounded=0;whiteSpace=wrap;html=1;align=left;" parent="0J2taYZqLhxap7dWOBqm-18" vertex="1">
          <mxGeometry y="30" width="170" height="30" as="geometry" />
        </mxCell>
        <mxCell id="0J2taYZqLhxap7dWOBqm-20" value="+makeYacht(builder)" style="text;strokeColor=none;fillColor=none;align=left;verticalAlign=middle;spacingLeft=4;spacingRight=4;overflow=hidden;points=[[0,0.5],[1,0.5]];portConstraint=eastwest;rotatable=0;whiteSpace=wrap;html=1;" parent="0J2taYZqLhxap7dWOBqm-18" vertex="1">
          <mxGeometry y="60" width="170" height="30" as="geometry" />
        </mxCell>
        <mxCell id="QMrXWG7ULhR697TOB94p-1" value="+makeFishingBoat(builder)" style="text;strokeColor=none;fillColor=none;align=left;verticalAlign=middle;spacingLeft=4;spacingRight=4;overflow=hidden;points=[[0,0.5],[1,0.5]];portConstraint=eastwest;rotatable=0;whiteSpace=wrap;html=1;" parent="0J2taYZqLhxap7dWOBqm-18" vertex="1">
          <mxGeometry y="90" width="170" height="30" as="geometry" />
        </mxCell>
        <mxCell id="0J2taYZqLhxap7dWOBqm-21" value="+makeBoat(builder)" style="text;strokeColor=none;fillColor=none;align=left;verticalAlign=middle;spacingLeft=4;spacingRight=4;overflow=hidden;points=[[0,0.5],[1,0.5]];portConstraint=eastwest;rotatable=0;whiteSpace=wrap;html=1;" parent="0J2taYZqLhxap7dWOBqm-18" vertex="1">
          <mxGeometry y="120" width="170" height="30" as="geometry" />
        </mxCell>
        <mxCell id="dQuskKlKTG53WlhPTK8X-16" value="+makeMarin(builder)" style="text;strokeColor=none;fillColor=none;align=left;verticalAlign=middle;spacingLeft=4;spacingRight=4;overflow=hidden;points=[[0,0.5],[1,0.5]];portConstraint=eastwest;rotatable=0;whiteSpace=wrap;html=1;" parent="0J2taYZqLhxap7dWOBqm-18" vertex="1">
          <mxGeometry y="150" width="170" height="30" as="geometry" />
        </mxCell>
        <mxCell id="QMrXWG7ULhR697TOB94p-7" value="+makeSpeedBoat(builder)" style="text;strokeColor=none;fillColor=none;align=left;verticalAlign=middle;spacingLeft=4;spacingRight=4;overflow=hidden;points=[[0,0.5],[1,0.5]];portConstraint=eastwest;rotatable=0;whiteSpace=wrap;html=1;" parent="0J2taYZqLhxap7dWOBqm-18" vertex="1">
          <mxGeometry y="180" width="170" height="30" as="geometry" />
        </mxCell>
        <mxCell id="0J2taYZqLhxap7dWOBqm-30" value="" style="endArrow=block;dashed=1;html=1;dashPattern=1 3;strokeWidth=1;rounded=0;endFill=0;startSize=1;endSize=12;" parent="1" edge="1">
          <mxGeometry width="50" height="50" relative="1" as="geometry">
            <mxPoint x="850" y="570" as="sourcePoint" />
            <mxPoint x="850" y="520" as="targetPoint" />
            <Array as="points">
              <mxPoint x="850" y="560" />
            </Array>
          </mxGeometry>
        </mxCell>
        <mxCell id="0J2taYZqLhxap7dWOBqm-49" value="Boat" style="rounded=0;whiteSpace=wrap;html=1;" parent="1" vertex="1">
          <mxGeometry x="795" y="1040" width="120" height="40" as="geometry" />
        </mxCell>
        <mxCell id="0J2taYZqLhxap7dWOBqm-50" value="" style="endArrow=none;html=1;rounded=0;startArrow=open;startFill=0;" parent="1" source="0J2taYZqLhxap7dWOBqm-49" edge="1">
          <mxGeometry width="50" height="50" relative="1" as="geometry">
            <mxPoint x="810" y="1050" as="sourcePoint" />
            <mxPoint x="855" y="1020" as="targetPoint" />
            <Array as="points" />
          </mxGeometry>
        </mxCell>
        <mxCell id="0J2taYZqLhxap7dWOBqm-54" value="" style="endArrow=open;dashed=1;html=1;rounded=0;exitX=1.018;exitY=0.2;exitDx=0;exitDy=0;endFill=0;strokeWidth=1;endSize=13;entryX=0;entryY=0.5;entryDx=0;entryDy=0;exitPerimeter=0;" parent="1" source="QMrXWG7ULhR697TOB94p-1" target="0J2taYZqLhxap7dWOBqm-4" edge="1">
          <mxGeometry width="50" height="50" relative="1" as="geometry">
            <mxPoint x="320" y="310" as="sourcePoint" />
            <mxPoint x="370" y="260" as="targetPoint" />
          </mxGeometry>
        </mxCell>
        <mxCell id="0J2taYZqLhxap7dWOBqm-55" value="&lt;div&gt;builder.buildFishFishingEquipment(false);&lt;/div&gt;&lt;div&gt;builder.buildRoomService(true);&lt;/div&gt;&lt;div&gt;&amp;nbsp;builder.buildRudder();&lt;/div&gt;&lt;div&gt;&amp;nbsp;builder.buildBilge();&lt;/div&gt;&lt;div&gt;&amp;nbsp;builder.buildStern();&lt;/div&gt;&lt;div&gt;&amp;nbsp;builder.buildGunnel();&lt;/div&gt;" style="shape=note;whiteSpace=wrap;html=1;backgroundOutline=1;darkOpacity=0.05;align=left;fillColor=#C9C9C9;" parent="1" vertex="1">
          <mxGeometry x="50" y="200" width="270" height="100" as="geometry" />
        </mxCell>
        <mxCell id="0J2taYZqLhxap7dWOBqm-56" value="" style="endArrow=none;dashed=1;html=1;dashPattern=1 3;strokeWidth=2;rounded=0;entryX=0;entryY=0.5;entryDx=0;entryDy=0;" parent="1" source="0J2taYZqLhxap7dWOBqm-55" target="0J2taYZqLhxap7dWOBqm-20" edge="1">
          <mxGeometry width="50" height="50" relative="1" as="geometry">
            <mxPoint x="310" y="300" as="sourcePoint" />
            <mxPoint x="360" y="250" as="targetPoint" />
          </mxGeometry>
        </mxCell>
        <mxCell id="0J2taYZqLhxap7dWOBqm-57" value="&lt;div&gt;&lt;span style=&quot;background-color: initial;&quot;&gt;builder.buildDrainPump(true);&lt;/span&gt;&lt;br&gt;&lt;/div&gt;&lt;div&gt;builder.buildFishFishingEquipment(false);&lt;/div&gt;&lt;div&gt;builder.buildRoomService(false);&lt;/div&gt;&lt;div&gt;builder.buildRudder();&lt;/div&gt;&lt;div&gt;builder.buildBilge();&lt;/div&gt;&lt;div&gt;builder.buildStern();&lt;/div&gt;&lt;div&gt;builder.buildGunnel();&lt;/div&gt;" style="shape=note;whiteSpace=wrap;html=1;backgroundOutline=1;darkOpacity=0.05;align=left;fillColor=#C9C9C9;" parent="1" vertex="1">
          <mxGeometry x="360" y="410" width="280" height="120" as="geometry" />
        </mxCell>
        <mxCell id="0J2taYZqLhxap7dWOBqm-58" style="edgeStyle=orthogonalEdgeStyle;rounded=0;orthogonalLoop=1;jettySize=auto;html=1;exitX=0.5;exitY=1;exitDx=0;exitDy=0;exitPerimeter=0;" parent="1" source="0J2taYZqLhxap7dWOBqm-55" target="0J2taYZqLhxap7dWOBqm-55" edge="1">
          <mxGeometry relative="1" as="geometry" />
        </mxCell>
        <mxCell id="0J2taYZqLhxap7dWOBqm-59" value="" style="endArrow=none;dashed=1;html=1;dashPattern=1 3;strokeWidth=2;rounded=0;" parent="1" source="0J2taYZqLhxap7dWOBqm-57" target="QMrXWG7ULhR697TOB94p-7" edge="1">
          <mxGeometry width="50" height="50" relative="1" as="geometry">
            <mxPoint x="30" y="580" as="sourcePoint" />
            <mxPoint x="80" y="530" as="targetPoint" />
          </mxGeometry>
        </mxCell>
        <mxCell id="0J2taYZqLhxap7dWOBqm-60" value="return this.Boat" style="shape=note;whiteSpace=wrap;html=1;backgroundOutline=1;darkOpacity=0.05;" parent="1" vertex="1">
          <mxGeometry x="250" y="950" width="160" height="50" as="geometry" />
        </mxCell>
        <mxCell id="0J2taYZqLhxap7dWOBqm-61" value="" style="endArrow=none;dashed=1;html=1;dashPattern=1 3;strokeWidth=2;rounded=0;exitX=0;exitY=0;exitDx=160;exitDy=30;exitPerimeter=0;" parent="1" source="0J2taYZqLhxap7dWOBqm-60" target="0J2taYZqLhxap7dWOBqm-45" edge="1">
          <mxGeometry width="50" height="50" relative="1" as="geometry">
            <mxPoint x="156.47" y="960" as="sourcePoint" />
            <mxPoint x="289.9994117647059" y="990" as="targetPoint" />
          </mxGeometry>
        </mxCell>
        <mxCell id="0J2taYZqLhxap7dWOBqm-69" value="_boat = new Boat" style="shape=note;whiteSpace=wrap;html=1;backgroundOutline=1;darkOpacity=0.05;" parent="1" vertex="1">
          <mxGeometry x="230" y="650" width="160" height="50" as="geometry" />
        </mxCell>
        <mxCell id="0J2taYZqLhxap7dWOBqm-70" value="" style="endArrow=none;dashed=1;html=1;dashPattern=1 3;strokeWidth=2;rounded=0;entryX=0;entryY=0.5;entryDx=0;entryDy=0;" parent="1" source="0J2taYZqLhxap7dWOBqm-69" target="0J2taYZqLhxap7dWOBqm-31" edge="1">
          <mxGeometry width="50" height="50" relative="1" as="geometry">
            <mxPoint x="176" y="930" as="sourcePoint" />
            <mxPoint x="299.9994117647059" y="1000" as="targetPoint" />
          </mxGeometry>
        </mxCell>
        <mxCell id="tW4oDFdkw_jPjsRUQwGj-1" value="&lt;b&gt;FishingBuilder&lt;/b&gt;" style="swimlane;fontStyle=0;childLayout=stackLayout;horizontal=1;startSize=30;horizontalStack=0;resizeParent=1;resizeParentMax=0;resizeLast=0;collapsible=1;marginBottom=0;whiteSpace=wrap;html=1;" parent="1" vertex="1">
          <mxGeometry x="740" y="600" width="230" height="390" as="geometry" />
        </mxCell>
        <mxCell id="tW4oDFdkw_jPjsRUQwGj-2" value="&lt;font style=&quot;font-size: 12px;&quot;&gt;&amp;nbsp; - _fishing:Boat&lt;/font&gt;" style="rounded=0;whiteSpace=wrap;html=1;align=left;" parent="tW4oDFdkw_jPjsRUQwGj-1" vertex="1">
          <mxGeometry y="30" width="230" height="30" as="geometry" />
        </mxCell>
        <mxCell id="tW4oDFdkw_jPjsRUQwGj-3" value="+reset()" style="text;strokeColor=none;fillColor=none;align=left;verticalAlign=middle;spacingLeft=4;spacingRight=4;overflow=hidden;points=[[0,0.5],[1,0.5]];portConstraint=eastwest;rotatable=0;whiteSpace=wrap;html=1;" parent="tW4oDFdkw_jPjsRUQwGj-1" vertex="1">
          <mxGeometry y="60" width="230" height="30" as="geometry" />
        </mxCell>
        <mxCell id="tW4oDFdkw_jPjsRUQwGj-4" value="+buildBody()" style="text;strokeColor=none;fillColor=none;align=left;verticalAlign=middle;spacingLeft=4;spacingRight=4;overflow=hidden;points=[[0,0.5],[1,0.5]];portConstraint=eastwest;rotatable=0;whiteSpace=wrap;html=1;" parent="tW4oDFdkw_jPjsRUQwGj-1" vertex="1">
          <mxGeometry y="90" width="230" height="30" as="geometry" />
        </mxCell>
        <mxCell id="tW4oDFdkw_jPjsRUQwGj-5" value="+builRudder()" style="text;strokeColor=none;fillColor=none;align=left;verticalAlign=middle;spacingLeft=4;spacingRight=4;overflow=hidden;points=[[0,0.5],[1,0.5]];portConstraint=eastwest;rotatable=0;whiteSpace=wrap;html=1;" parent="tW4oDFdkw_jPjsRUQwGj-1" vertex="1">
          <mxGeometry y="120" width="230" height="30" as="geometry" />
        </mxCell>
        <mxCell id="tW4oDFdkw_jPjsRUQwGj-6" value="+builStern()" style="text;strokeColor=none;fillColor=none;align=left;verticalAlign=middle;spacingLeft=4;spacingRight=4;overflow=hidden;points=[[0,0.5],[1,0.5]];portConstraint=eastwest;rotatable=0;whiteSpace=wrap;html=1;" parent="tW4oDFdkw_jPjsRUQwGj-1" vertex="1">
          <mxGeometry y="150" width="230" height="30" as="geometry" />
        </mxCell>
        <mxCell id="tW4oDFdkw_jPjsRUQwGj-7" value="+builGunnel()" style="text;strokeColor=none;fillColor=none;align=left;verticalAlign=middle;spacingLeft=4;spacingRight=4;overflow=hidden;points=[[0,0.5],[1,0.5]];portConstraint=eastwest;rotatable=0;whiteSpace=wrap;html=1;" parent="tW4oDFdkw_jPjsRUQwGj-1" vertex="1">
          <mxGeometry y="180" width="230" height="30" as="geometry" />
        </mxCell>
        <mxCell id="tW4oDFdkw_jPjsRUQwGj-8" value="+builBilge()" style="text;strokeColor=none;fillColor=none;align=left;verticalAlign=middle;spacingLeft=4;spacingRight=4;overflow=hidden;points=[[0,0.5],[1,0.5]];portConstraint=eastwest;rotatable=0;whiteSpace=wrap;html=1;" parent="tW4oDFdkw_jPjsRUQwGj-1" vertex="1">
          <mxGeometry y="210" width="230" height="30" as="geometry" />
        </mxCell>
        <mxCell id="tW4oDFdkw_jPjsRUQwGj-9" value="+buildRudder()" style="text;strokeColor=none;fillColor=none;align=left;verticalAlign=middle;spacingLeft=4;spacingRight=4;overflow=hidden;points=[[0,0.5],[1,0.5]];portConstraint=eastwest;rotatable=0;whiteSpace=wrap;html=1;" parent="tW4oDFdkw_jPjsRUQwGj-1" vertex="1">
          <mxGeometry y="240" width="230" height="30" as="geometry" />
        </mxCell>
        <mxCell id="tW4oDFdkw_jPjsRUQwGj-10" value="+buildFishFishingEquipment(bool fishing)" style="text;strokeColor=none;fillColor=none;align=left;verticalAlign=middle;spacingLeft=4;spacingRight=4;overflow=hidden;points=[[0,0.5],[1,0.5]];portConstraint=eastwest;rotatable=0;whiteSpace=wrap;html=1;" parent="tW4oDFdkw_jPjsRUQwGj-1" vertex="1">
          <mxGeometry y="270" width="230" height="30" as="geometry" />
        </mxCell>
        <mxCell id="tW4oDFdkw_jPjsRUQwGj-11" value="+buildRoomService(bool value)" style="text;strokeColor=none;fillColor=none;align=left;verticalAlign=middle;spacingLeft=4;spacingRight=4;overflow=hidden;points=[[0,0.5],[1,0.5]];portConstraint=eastwest;rotatable=0;whiteSpace=wrap;html=1;" parent="tW4oDFdkw_jPjsRUQwGj-1" vertex="1">
          <mxGeometry y="300" width="230" height="30" as="geometry" />
        </mxCell>
        <mxCell id="P2RlCiofksnCE4rTVvpo-2" value="+buildWeapon(bool value)" style="text;strokeColor=none;fillColor=none;align=left;verticalAlign=middle;spacingLeft=4;spacingRight=4;overflow=hidden;points=[[0,0.5],[1,0.5]];portConstraint=eastwest;rotatable=0;whiteSpace=wrap;html=1;" parent="tW4oDFdkw_jPjsRUQwGj-1" vertex="1">
          <mxGeometry y="330" width="230" height="30" as="geometry" />
        </mxCell>
        <mxCell id="P2RlCiofksnCE4rTVvpo-6" value="+getBoat():Boat" style="text;strokeColor=none;fillColor=none;align=left;verticalAlign=middle;spacingLeft=4;spacingRight=4;overflow=hidden;points=[[0,0.5],[1,0.5]];portConstraint=eastwest;rotatable=0;whiteSpace=wrap;html=1;" parent="tW4oDFdkw_jPjsRUQwGj-1" vertex="1">
          <mxGeometry y="360" width="230" height="30" as="geometry" />
        </mxCell>
        <mxCell id="dQuskKlKTG53WlhPTK8X-1" value="&lt;b&gt;MarinBuilder&lt;/b&gt;" style="swimlane;fontStyle=0;childLayout=stackLayout;horizontal=1;startSize=30;horizontalStack=0;resizeParent=1;resizeParentMax=0;resizeLast=0;collapsible=1;marginBottom=0;whiteSpace=wrap;html=1;" parent="1" vertex="1">
          <mxGeometry x="990" y="600" width="230" height="390" as="geometry" />
        </mxCell>
        <mxCell id="dQuskKlKTG53WlhPTK8X-22" value="" style="endArrow=none;dashed=1;html=1;dashPattern=1 3;strokeWidth=1;rounded=0;endFill=0;startSize=1;endSize=12;" parent="dQuskKlKTG53WlhPTK8X-1" edge="1">
          <mxGeometry width="50" height="50" relative="1" as="geometry">
            <mxPoint x="170" as="sourcePoint" />
            <mxPoint x="170" as="targetPoint" />
            <Array as="points">
              <mxPoint x="170" />
              <mxPoint x="170" y="-40" />
            </Array>
          </mxGeometry>
        </mxCell>
        <mxCell id="dQuskKlKTG53WlhPTK8X-2" value="&lt;font style=&quot;font-size: 12px;&quot;&gt;&amp;nbsp; - _marin:Boat&lt;/font&gt;" style="rounded=0;whiteSpace=wrap;html=1;align=left;" parent="dQuskKlKTG53WlhPTK8X-1" vertex="1">
          <mxGeometry y="30" width="230" height="30" as="geometry" />
        </mxCell>
        <mxCell id="dQuskKlKTG53WlhPTK8X-3" value="+reset()" style="text;strokeColor=none;fillColor=none;align=left;verticalAlign=middle;spacingLeft=4;spacingRight=4;overflow=hidden;points=[[0,0.5],[1,0.5]];portConstraint=eastwest;rotatable=0;whiteSpace=wrap;html=1;" parent="dQuskKlKTG53WlhPTK8X-1" vertex="1">
          <mxGeometry y="60" width="230" height="30" as="geometry" />
        </mxCell>
        <mxCell id="dQuskKlKTG53WlhPTK8X-4" value="+buildBody()" style="text;strokeColor=none;fillColor=none;align=left;verticalAlign=middle;spacingLeft=4;spacingRight=4;overflow=hidden;points=[[0,0.5],[1,0.5]];portConstraint=eastwest;rotatable=0;whiteSpace=wrap;html=1;" parent="dQuskKlKTG53WlhPTK8X-1" vertex="1">
          <mxGeometry y="90" width="230" height="30" as="geometry" />
        </mxCell>
        <mxCell id="dQuskKlKTG53WlhPTK8X-5" value="+builRudder()" style="text;strokeColor=none;fillColor=none;align=left;verticalAlign=middle;spacingLeft=4;spacingRight=4;overflow=hidden;points=[[0,0.5],[1,0.5]];portConstraint=eastwest;rotatable=0;whiteSpace=wrap;html=1;" parent="dQuskKlKTG53WlhPTK8X-1" vertex="1">
          <mxGeometry y="120" width="230" height="30" as="geometry" />
        </mxCell>
        <mxCell id="dQuskKlKTG53WlhPTK8X-6" value="+builStern()" style="text;strokeColor=none;fillColor=none;align=left;verticalAlign=middle;spacingLeft=4;spacingRight=4;overflow=hidden;points=[[0,0.5],[1,0.5]];portConstraint=eastwest;rotatable=0;whiteSpace=wrap;html=1;" parent="dQuskKlKTG53WlhPTK8X-1" vertex="1">
          <mxGeometry y="150" width="230" height="30" as="geometry" />
        </mxCell>
        <mxCell id="dQuskKlKTG53WlhPTK8X-7" value="+builGunnel()" style="text;strokeColor=none;fillColor=none;align=left;verticalAlign=middle;spacingLeft=4;spacingRight=4;overflow=hidden;points=[[0,0.5],[1,0.5]];portConstraint=eastwest;rotatable=0;whiteSpace=wrap;html=1;" parent="dQuskKlKTG53WlhPTK8X-1" vertex="1">
          <mxGeometry y="180" width="230" height="30" as="geometry" />
        </mxCell>
        <mxCell id="dQuskKlKTG53WlhPTK8X-8" value="+builBilge()" style="text;strokeColor=none;fillColor=none;align=left;verticalAlign=middle;spacingLeft=4;spacingRight=4;overflow=hidden;points=[[0,0.5],[1,0.5]];portConstraint=eastwest;rotatable=0;whiteSpace=wrap;html=1;" parent="dQuskKlKTG53WlhPTK8X-1" vertex="1">
          <mxGeometry y="210" width="230" height="30" as="geometry" />
        </mxCell>
        <mxCell id="dQuskKlKTG53WlhPTK8X-9" value="+buildRudder()" style="text;strokeColor=none;fillColor=none;align=left;verticalAlign=middle;spacingLeft=4;spacingRight=4;overflow=hidden;points=[[0,0.5],[1,0.5]];portConstraint=eastwest;rotatable=0;whiteSpace=wrap;html=1;" parent="dQuskKlKTG53WlhPTK8X-1" vertex="1">
          <mxGeometry y="240" width="230" height="30" as="geometry" />
        </mxCell>
        <mxCell id="dQuskKlKTG53WlhPTK8X-10" value="+buildFishFishingEquipment(bool fishing)" style="text;strokeColor=none;fillColor=none;align=left;verticalAlign=middle;spacingLeft=4;spacingRight=4;overflow=hidden;points=[[0,0.5],[1,0.5]];portConstraint=eastwest;rotatable=0;whiteSpace=wrap;html=1;" parent="dQuskKlKTG53WlhPTK8X-1" vertex="1">
          <mxGeometry y="270" width="230" height="30" as="geometry" />
        </mxCell>
        <mxCell id="dQuskKlKTG53WlhPTK8X-11" value="+buildRoomService(bool value)" style="text;strokeColor=none;fillColor=none;align=left;verticalAlign=middle;spacingLeft=4;spacingRight=4;overflow=hidden;points=[[0,0.5],[1,0.5]];portConstraint=eastwest;rotatable=0;whiteSpace=wrap;html=1;" parent="dQuskKlKTG53WlhPTK8X-1" vertex="1">
          <mxGeometry y="300" width="230" height="30" as="geometry" />
        </mxCell>
        <mxCell id="P2RlCiofksnCE4rTVvpo-3" value="+buildWeapon(bool value)" style="text;strokeColor=none;fillColor=none;align=left;verticalAlign=middle;spacingLeft=4;spacingRight=4;overflow=hidden;points=[[0,0.5],[1,0.5]];portConstraint=eastwest;rotatable=0;whiteSpace=wrap;html=1;" parent="dQuskKlKTG53WlhPTK8X-1" vertex="1">
          <mxGeometry y="330" width="230" height="30" as="geometry" />
        </mxCell>
        <mxCell id="P2RlCiofksnCE4rTVvpo-7" value="+getBoat():Boat" style="text;strokeColor=none;fillColor=none;align=left;verticalAlign=middle;spacingLeft=4;spacingRight=4;overflow=hidden;points=[[0,0.5],[1,0.5]];portConstraint=eastwest;rotatable=0;whiteSpace=wrap;html=1;" parent="dQuskKlKTG53WlhPTK8X-1" vertex="1">
          <mxGeometry y="360" width="230" height="30" as="geometry" />
        </mxCell>
        <mxCell id="dQuskKlKTG53WlhPTK8X-15" value="" style="endArrow=none;html=1;rounded=0;exitX=0.391;exitY=1;exitDx=0;exitDy=0;exitPerimeter=0;entryX=0.565;entryY=1.033;entryDx=0;entryDy=0;entryPerimeter=0;" parent="1" source="0J2taYZqLhxap7dWOBqm-45" target="P2RlCiofksnCE4rTVvpo-7" edge="1">
          <mxGeometry width="50" height="50" relative="1" as="geometry">
            <mxPoint x="510" y="1030" as="sourcePoint" />
            <mxPoint x="1116.96" y="1019.01" as="targetPoint" />
            <Array as="points">
              <mxPoint x="560" y="1020" />
              <mxPoint x="840" y="1020" />
              <mxPoint x="1120" y="1020" />
            </Array>
          </mxGeometry>
        </mxCell>
        <mxCell id="dQuskKlKTG53WlhPTK8X-18" value="" style="endArrow=none;dashed=1;html=1;dashPattern=1 3;strokeWidth=1;rounded=0;endFill=0;startSize=1;endSize=12;" parent="1" edge="1">
          <mxGeometry width="50" height="50" relative="1" as="geometry">
            <mxPoint x="560" y="600" as="sourcePoint" />
            <mxPoint x="850" y="560" as="targetPoint" />
            <Array as="points">
              <mxPoint x="560" y="600" />
              <mxPoint x="560" y="560" />
            </Array>
          </mxGeometry>
        </mxCell>
        <mxCell id="dQuskKlKTG53WlhPTK8X-20" value="" style="endArrow=none;dashed=1;html=1;dashPattern=1 3;strokeWidth=1;rounded=0;endFill=0;startSize=1;endSize=12;" parent="1" edge="1">
          <mxGeometry width="50" height="50" relative="1" as="geometry">
            <mxPoint x="850" y="560" as="sourcePoint" />
            <mxPoint x="1070" y="560" as="targetPoint" />
            <Array as="points">
              <mxPoint x="850" y="560" />
              <mxPoint x="1070" y="560" />
              <mxPoint x="1160" y="560" />
            </Array>
          </mxGeometry>
        </mxCell>
      </root>
    </mxGraphModel>
  </diagram>
</mxfile>
